<?xml version="1.0" encoding="UTF-8"?> <svg xmlns="http://www.w3.org/2000/svg" id="Layer_1" data-name="Layer 1" viewBox="0 0 309.84 307.09"><defs><style>.cls-1{fill:#4379bd;}.cls-2{fill:#265ba7;}.cls-3{fill:none;stroke:#878787;stroke-miterlimit:10;stroke-width:3px;}.cls-4{fill:#2f87c8;}</style></defs><path class="cls-1" d="M237.17,192.6l72.67,35.31-.65,1.76c-2-.55-4-1.16-6.07-1.65-19.1-4.52-38.22-8.93-57.28-13.62-3-.73-4.46-.07-6.2,2.25a104.47,104.47,0,0,1-39.24,31.71c-2.8,1.33-3.59,2.82-3.24,5.71,1.17,9.89,2.17,19.81,2.56,30.14-1.63-2.48-3.31-4.93-4.88-7.45-3.7-5.93-7.49-11.81-10.93-17.89-1.57-2.79-3.08-3.5-6.31-2.74a104.84,104.84,0,0,1-49.95-.81c-1-.24-1.93-.52-2.87-.84-.26-.09-.45-.42-.9-.87,2.83-3.6,5.52-7.37,8.64-10.76.84-.91,3-1.11,4.45-.87q54.75,8.84,90.22-33.72a69.09,69.09,0,0,0,5.09-7.39C233.88,198.37,235.32,195.76,237.17,192.6Z"></path><path class="cls-2" d="M195.41,70.76,230.42,0l1.06.12A36.06,36.06,0,0,1,231,5.34C226.48,24,222,42.56,217.33,61.11c-.85,3.37-.38,5.41,2.51,7.56a99.57,99.57,0,0,1,31,37.87c1.58,3.36,3.3,4.5,7.21,3.9,9.16-1.42,18.42-2.15,27.65-3.15l.44,1.21c-3.68,2.29-7.35,4.61-11.05,6.87-4.55,2.78-9,5.66-13.71,8.21-2.7,1.48-3.15,3.18-2.47,6.07,4.18,17.87,3.23,35.59-2.05,53.74-4.15-3.23-8-6-11.57-9.22-.87-.79-.8-3-.62-4.51,2-16.69,2.21-33.16-4.1-49.22-8.19-20.83-21.89-36.69-41.44-47.54C198,72.27,196.89,71.61,195.41,70.76Z"></path><path class="cls-1" d="M109.92,21c5.23,8.47,10.57,16.88,15.64,25.45,1.61,2.7,3.13,3.52,6.36,2.77a103.09,103.09,0,0,1,54,2c-3.17,4-6,7.82-9.12,11.38-.66.75-2.4,1-3.55.81C128.93,56.87,95.46,72.72,73,111.58c-.15.25-.53.37-1.12.76L0,77.47l.31-1.18c3.31.6,6.65,1,9.92,1.82,17.64,4.16,35.28,8.35,52.89,12.68,2.9.71,4.8.53,6.76-2.11A102.29,102.29,0,0,1,109.11,57c3-1.42,3.69-3.09,3.3-6.14C111.16,41,110.14,31.12,109,21.24Z"></path><path class="cls-2" d="M22,197.5c8.2-5,16.31-10.14,24.66-14.86,3.58-2,4.65-4.1,3.67-8.24-4.1-17.4-2.91-34.66,2.29-52.4,4.1,3.2,7.94,6,11.47,9.09.78.69.79,2.65.62,4-2.44,18.82-1.2,37.14,6.15,54.93,7.81,18.88,21.28,32.31,38.83,42.08,1.3.72,2.57,1.47,4.34,2.48L78.15,307.09l-1.34-.56c1.34-5.67,2.64-11.35,4-17,3.72-15,7.41-30,11.29-45,.89-3.46.4-5.67-2.7-8A97.84,97.84,0,0,1,58.76,199c-1.71-3.67-3.67-4.63-7.65-4-9.53,1.43-19.16,2.27-28.74,3.35Z"></path><ellipse class="cls-3" cx="154.23" cy="152.74" rx="85.56" ry="85.05"></ellipse><polyline class="cls-4" points="179.57 100.91 105.73 170.72 148.48 164.68"></polyline><polyline class="cls-2" points="179.55 101.24 168.35 202.24 147.4 164.49"></polyline></svg> 